<mxfile host="app.diagrams.net" agent="Mozilla/5.0 (Windows NT 10.0; Win64; x64) AppleWebKit/537.36 (KHTML, like Gecko) Chrome/132.0.0.0 YaBrowser/25.2.0.0 Safari/537.36" version="26.2.3">
  <diagram name="Страница — 1" id="zNSV9Po2HzWKxL7lKk5D">
    <mxGraphModel dx="680" dy="364" grid="1" gridSize="10" guides="1" tooltips="1" connect="1" arrows="1" fold="1" page="1" pageScale="1" pageWidth="1169" pageHeight="827" math="0" shadow="0">
      <root>
        <mxCell id="0" />
        <mxCell id="1" parent="0" />
        <mxCell id="285XWZqNX1cObEryy3NT-5" style="edgeStyle=orthogonalEdgeStyle;rounded=0;orthogonalLoop=1;jettySize=auto;html=1;entryX=0.5;entryY=0;entryDx=0;entryDy=0;exitX=0.25;exitY=1;exitDx=0;exitDy=0;" edge="1" parent="1" source="285XWZqNX1cObEryy3NT-1" target="285XWZqNX1cObEryy3NT-2">
          <mxGeometry relative="1" as="geometry" />
        </mxCell>
        <mxCell id="285XWZqNX1cObEryy3NT-6" style="edgeStyle=orthogonalEdgeStyle;rounded=0;orthogonalLoop=1;jettySize=auto;html=1;" edge="1" parent="1" source="285XWZqNX1cObEryy3NT-1" target="285XWZqNX1cObEryy3NT-3">
          <mxGeometry relative="1" as="geometry" />
        </mxCell>
        <mxCell id="285XWZqNX1cObEryy3NT-7" style="edgeStyle=orthogonalEdgeStyle;rounded=0;orthogonalLoop=1;jettySize=auto;html=1;exitX=0.75;exitY=1;exitDx=0;exitDy=0;" edge="1" parent="1" source="285XWZqNX1cObEryy3NT-1" target="285XWZqNX1cObEryy3NT-4">
          <mxGeometry relative="1" as="geometry" />
        </mxCell>
        <mxCell id="285XWZqNX1cObEryy3NT-1" value="Получение задачи" style="rounded=1;whiteSpace=wrap;html=1;" vertex="1" parent="1">
          <mxGeometry x="400" y="180" width="120" height="60" as="geometry" />
        </mxCell>
        <mxCell id="285XWZqNX1cObEryy3NT-2" value="Редактирование семейства" style="rounded=1;whiteSpace=wrap;html=1;" vertex="1" parent="1">
          <mxGeometry x="240" y="280" width="120" height="60" as="geometry" />
        </mxCell>
        <mxCell id="285XWZqNX1cObEryy3NT-3" value="Создание нового семейства" style="rounded=1;whiteSpace=wrap;html=1;" vertex="1" parent="1">
          <mxGeometry x="400" y="280" width="120" height="60" as="geometry" />
        </mxCell>
        <mxCell id="285XWZqNX1cObEryy3NT-4" value="Обработка стороннего семейства" style="rounded=1;whiteSpace=wrap;html=1;" vertex="1" parent="1">
          <mxGeometry x="560" y="280" width="120" height="60" as="geometry" />
        </mxCell>
      </root>
    </mxGraphModel>
  </diagram>
</mxfile>
